<svg width="232" height="48" viewBox="0 0 232 48" fill="none" xmlns="http://www.w3.org/2000/svg">
<path d="M181.999 0C179.024 12.041 168.352 18.5996 162.075 22.1116L161.808 21.7553C164.388 19.7121 173.216 13.3353 176.034 2.77758L181.999 0Z" fill="#F68833"/>
<path d="M26.9626 23.1189C26.8065 24.2168 24.516 39.7693 24.3077 41.2162H29.4019C29.5655 40.111 31.8411 24.5731 32.0568 23.1189H26.9626Z" fill="#1C3E70"/>
<path d="M68.6664 23.1189C68.5028 24.2168 66.2271 39.7693 66.0115 41.2162H77.9622C78.0812 40.4237 78.3861 38.3224 78.5348 37.3117H71.2915L71.7898 33.9744H78.3564C78.4754 33.1964 78.7505 31.3132 78.8918 30.3317H72.3252L72.8012 27.0307H79.8511C79.9701 26.2308 80.275 24.1368 80.4238 23.1262H68.6738L68.6664 23.1189Z" fill="#1C3E70"/>
<path d="M11.8987 33.4963C11.8987 33.4963 16.1599 23.9568 16.502 23.1279H22.9124C22.9124 24.4003 22.0572 39.9456 22.0721 41.2253H17.4539L18.2124 28.552C18.2124 28.552 13.0216 40.4255 12.6721 41.2253H9.02069L7.38462 28.552C7.26564 29.1337 5.53289 37.5898 4.59587 41.2253H0C0.475947 39.6111 3.9935 24.0586 4.26866 23.1279H10.4485L11.8987 33.4963Z" fill="#1C3E70"/>
<path d="M55.3396 33.8217L58.2696 27.1034L59.2215 33.8217H55.3396ZM59.7123 37.5517C59.7123 37.5517 60.0321 40.5037 60.1511 41.2162H65.0444C64.7693 39.7257 62.0995 24.1805 61.9136 23.1189H55.7263C55.3768 23.8751 48.3119 39.4348 47.479 41.2162H52.4393C52.6995 40.6055 53.9638 37.5517 53.9638 37.5517H59.7272H59.7123Z" fill="#1C3E70"/>
<path d="M42.8848 29.0246C42.8848 29.0246 42.7287 30.4061 41.7917 30.8496C41.7917 30.8496 41.1521 31.2568 40.0887 31.2859H38.46C38.8467 28.6393 39.1516 26.5234 39.1516 26.5234H40.2894C41.0703 26.5234 41.9404 26.6034 42.4758 27.2142C42.8625 27.6432 42.9964 28.2539 42.8848 29.0246ZM47.8228 29.0974C47.8897 28.6611 47.9269 28.2539 47.9269 27.8613C47.9269 26.5889 47.5774 25.5637 46.9155 24.8075C45.6736 23.426 43.569 23.1279 42.0148 23.1279H35.0243C34.8607 24.2258 32.585 39.7783 32.3694 41.2253H37.0099C37.0917 40.6727 37.7461 36.2738 38.2964 32.442L42.1337 41.2253H47.0866L43.3459 33.5981C45.6067 33.1836 47.3766 32.5292 47.8228 29.0974Z" fill="#1C3E70"/>
<path d="M125.361 29.5674C124.907 29.3492 123.911 28.7531 123.911 27.7788C123.911 27.3135 124.104 26.9064 124.446 26.6228C124.855 26.2738 125.51 26.143 126.194 26.2593C127.071 26.4047 128.083 26.95 129.183 27.8879C129.711 26.9064 130.708 25.0088 131.072 24.3471C129.808 23.3293 128.581 22.7695 126.752 22.4568C124.484 22.1296 122.305 22.6022 120.78 23.7364C119.486 24.6961 118.683 26.1139 118.468 27.8297C118.431 28.1133 118.423 28.4041 118.423 28.6731C118.423 29.6182 118.624 30.4253 119.025 31.1087C121.784 31.0505 124.677 30.9124 127.607 30.687C127.332 30.5271 125.361 29.5601 125.361 29.5601" fill="#1C3E70"/>
<path d="M147.39 23.1389C147.271 23.8878 146.922 26.2652 146.751 27.443C150.342 26.4543 154.693 25.0438 158.716 23.1389H147.39Z" fill="#1C3E70"/>
<path d="M89.7683 32.5425L93.7248 28.9141C93.7248 28.9141 96.0303 29.5904 99.191 30.143C98.5961 26.6382 98.068 23.5624 97.9862 23.1189H91.7986C91.4416 23.8751 84.3838 39.4357 83.5435 41.2172H88.504C88.7717 40.6064 90.4302 36.7162 90.4302 36.7162H95.5989C95.5989 36.7162 96.1121 40.4973 96.2162 41.2172H101.102C100.991 40.6355 100.53 37.9087 99.9719 34.7384C103.46 34.9202 106.963 34.9638 110.205 34.9129C110.376 35.182 110.458 35.4656 110.458 35.7782C110.458 35.8873 110.443 35.9964 110.428 36.1127C110.362 36.5199 110.138 36.8616 109.804 37.0871C109.127 37.5451 108.16 37.4434 107.491 37.3343C105.914 37.0652 104.665 35.8946 103.646 34.9202C103.014 35.9309 101.668 38.0469 101.244 38.7376C103.11 40.4028 105.118 41.4208 107.26 41.6971C109.417 42.017 111.559 41.5444 113.143 40.41C114.519 39.4066 115.389 37.9596 115.664 36.1927C115.753 35.6837 115.783 35.2111 115.761 34.7457C119.249 34.6003 122.149 34.3894 124.009 34.2294C124.626 34.6657 124.938 35.1893 124.938 35.7782C124.938 35.8873 124.938 35.9964 124.908 36.1127C124.834 36.5199 124.618 36.8616 124.284 37.0871C123.607 37.5451 122.648 37.4434 121.986 37.3343C120.409 37.0652 119.152 35.8946 118.141 34.9202C117.501 35.9309 116.17 38.0469 115.739 38.7376C117.605 40.4028 119.613 41.4208 121.755 41.6971C123.912 42.017 126.039 41.5444 127.63 40.41C129.014 39.4066 129.884 37.9596 130.152 36.1927C130.323 35.2183 130.278 34.3385 130.047 33.5459C130.843 33.4296 131.594 33.3205 132.331 33.2042C131.758 36.9998 131.252 40.5555 131.148 41.2172H143.107C143.218 40.4246 143.516 38.3232 143.665 37.3125H136.436L136.927 33.9749H143.494C143.59 33.2769 143.828 31.6918 143.977 30.6592C144.869 30.3829 145.316 30.2157 145.316 30.2157C145.316 30.2157 147.547 29.5613 150.418 28.5287C150.008 31.3573 148.737 40.0247 148.566 41.2244H153.742C153.898 40.1555 155.735 27.6271 155.735 27.6271H159.483C159.595 26.8491 159.952 24.3623 160.115 23.2352C140.4 33.2624 110.711 35.1093 89.7683 32.5425Z" fill="#1C3E70"/>
<path d="M113.849 31.1596C113.388 30.7452 110.897 29.5674 110.897 29.5674C110.465 29.3275 109.447 28.7531 109.447 27.7789C109.447 27.3136 109.64 26.9064 109.975 26.6229C110.406 26.2811 111.045 26.143 111.737 26.2666C112.607 26.4047 113.626 26.9573 114.726 27.8952C115.247 26.9064 116.251 25.0161 116.615 24.3545C115.344 23.3293 114.124 22.7695 112.287 22.4641C110.027 22.137 107.833 22.6096 106.316 23.7437C105.015 24.7107 104.219 26.1139 104.011 27.837C103.974 28.1206 103.959 28.4114 103.959 28.6804C103.959 29.4729 104.107 30.1854 104.39 30.8034C104.502 30.8034 110.034 31.2105 113.849 31.1669" fill="#1C3E70"/>
<path d="M137.923 27.0322H144.98C145.084 26.2324 145.404 24.1385 145.545 23.1279H133.796C133.729 23.6005 133.268 26.6832 132.747 30.173C134.383 29.9695 135.997 29.7368 137.566 29.4678L137.923 27.0394V27.0322Z" fill="#1C3E70"/>
<rect x="173" y="23" width="1.5" height="19" fill="#043B72"/>
<path d="M200.08 23.24V26.192H192.736V30.296H198.976V33.272H192.736V38.024H200.344V41H189.184V23.24H200.08ZM202.966 26.192V23.24H216.55V26.192H211.51V41H207.958V26.192H202.966ZM230.854 23.24V26.192H223.462V30.824H229.774V33.8H223.462V41H219.91V23.24H230.854Z" fill="#E37500"/>
</svg>
