<svg width="75" height="61" viewBox="0 0 75 61" fill="none" xmlns="http://www.w3.org/2000/svg">
<g clip-path="url(#clip0_3246_44545)">
<path d="M73.3858 15.8531C72.5221 13.2406 69.9913 11.1814 66.782 10.4779C60.9184 9.17188 37.4641 9.17188 37.4641 9.17188C37.4641 9.17188 14.0104 9.17188 8.14681 10.4281C4.99922 11.1311 2.40671 13.2411 1.54293 15.8531C0 20.6249 0 30.5211 0 30.5211C0 30.5211 0 40.4671 1.54293 45.1891C2.40728 47.8011 4.93748 49.8608 8.14738 50.5643C14.0721 51.8703 37.4647 51.8703 37.4647 51.8703C37.4647 51.8703 60.9184 51.8703 66.782 50.6141C69.9919 49.911 72.5221 47.8513 73.3864 45.2393C74.9293 40.4671 74.9293 30.5713 74.9293 30.5713C74.9293 30.5713 74.9911 20.6249 73.3858 15.8531Z" fill="black" fill-opacity="0.75"/>
<path d="M29.9961 39.6639L49.4996 30.5214L29.9961 21.3789V39.6639Z" fill="white"/>
</g>
<defs>
<clipPath id="clip0_3246_44545">
<rect width="74.9297" height="60.9836" fill="white"/>
</clipPath>
</defs>
</svg>
